<?xml version="1.0" standalone="no"?>
<!DOCTYPE svg PUBLIC "-//W3C//DTD SVG 1.1//EN" "http://www.w3.org/Graphics/SVG/1.1/DTD/svg11.dtd" >
<svg xmlns="http://www.w3.org/2000/svg">
<defs>
  <font id="Nucleo" horiz-adv-x="256">
    <font-face font-family="Nucleo"
      units-per-em="256" ascent="256"
      descent="0" />
    <missing-glyph horiz-adv-x="0" />
    <glyph glyph-name="lock"
      unicode="&#xEA02;"
      horiz-adv-x="256" d="M113.674 254.455C102.207 252.175 92.727 246.798 82.964 237.036C68.483 222.555 64 210.114 64 184.412L64 171L48 171L32 171L32 85.5L32 0L128 0L224 0L224 85.5L224 171L208 171L192 171L192 184.412C192 210.114 187.517 222.555 173.036 237.036C166.534 243.537 162.683 246.462 156.877 249.309C144.085 255.583 128.615 257.425 113.674 254.455M146.949 230.087C150.495 228.263 155.67 224.425 158.449 221.558C167.918 211.787 170.94 202.067 170.98 181.25L171 171L128 171L85 171L85.02 181.25C85.06 202.063 88.082 211.787 97.546 221.553C102.172 226.326 109.745 231.071 116 233.115C117.375 233.564 123.45 233.813 129.5 233.668C139.733 233.422 140.95 233.172 146.949 230.087M202.757 85.25L202.5 21.5L127.75 21.244L53 20.987L53 84.994L53 149L128.007 149L203.015 149L202.757 85.25M120.734 126.97C98.611 121.414 88.909 95.966 101.983 77.785C104.192 74.714 108.113 71.034 111.344 69L116.904 65.5L116.952 54.25L117 43L128 43L139 43L139.048 54.25L139.096 65.5L144.638 69C167.029 83.14 164.243 115.28 139.744 125.47C134.969 127.456 125.609 128.195 120.734 126.97M133.64 104.827C139 102.204 139.956 93.228 135.364 88.636C131.663 84.935 124.393 84.88 120.748 88.524C116.418 92.855 116.393 99.12 120.689 103.416C124.256 106.983 128.328 107.427 133.64 104.827" />
    <glyph glyph-name="user"
      unicode="&#xEA03;"
      horiz-adv-x="256" d="M128 128A56 56 0 1 1 72 184A56 56 0 0 1 128 128zM128 224A40 40 0 1 0 88 184A40 40 0 0 0 128 224zM136 112H120A88 88 0 0 1 32 24A8 8 0 0 1 40 16H216A8 8 0 0 1 224 24A88 88 0 0 1 136 112zM48.48 32A72 72 0 0 0 120 96H136A72 72 0 0 0 207.52 32z" />
    <glyph glyph-name="email"
      unicode="&#xEA06;"
      horiz-adv-x="256" d="M0 128L0 21L128 21L256 21L256 128L256 235L128 235L0 235L0 128M215.459 211.217C214.336 210.273 194.366 192.175 171.082 171C147.798 149.825 128.411 132.5 128 132.5C127.589 132.5 108.202 149.825 84.918 171C61.634 192.175 41.664 210.273 40.541 211.217C38.609 212.841 43.297 212.933 128 212.933C212.703 212.933 217.391 212.841 215.459 211.217M75.394 150.745L127.994 102.99L180.588 150.745C209.514 177.01 233.591 198.65 234.091 198.833C234.631 199.032 235 167.512 235 121.083L235 43L128 43L21 43L21 121.083C21 166.748 21.372 199.028 21.897 198.833C22.39 198.65 46.464 177.01 75.394 150.745" />
    <glyph glyph-name="bookmark"
      unicode="&#xEA07;"
      horiz-adv-x="256" d="M32 128.993L32 1.986L39.75 6.839C44.012 9.509 65.612 23.012 87.75 36.848L128 62.003L168.25 36.848C190.387 23.012 211.988 9.509 216.25 6.839L224 1.986L224 128.993L224 256L128 256L32 256L32 128.993M202.755 137.665C202.895 84.406 202.63 40.981 202.166 41.165C201.702 41.349 184.824 51.78 164.661 64.344L128 87.187L91.339 64.344C71.176 51.78 54.301 41.35 53.839 41.167C53.378 40.983 53 84.524 53 137.923L53 235.013L127.75 234.756L202.5 234.5L202.755 137.665" />
    <glyph glyph-name="zoom"
      unicode="&#xEA08;"
      horiz-adv-x="256" d="M91.5 254.891C81.304 253.422 68.114 249.153 58.619 244.249C36.567 232.86 20.903 216.729 10.434 194.629C-9.038 153.524 -0.181 104.447 32.332 73.292C48.775 57.534 67.029 48.265 89.258 44.383C102.153 42.132 120.09 42.958 133.477 46.42C144.486 49.267 160.922 56.836 168.19 62.406C170.77 64.383 173.247 66 173.696 66C174.145 66 188.003 52.504 204.491 36.009L234.47 6.017L241.735 13.234C245.731 17.203 249 20.908 249 21.469C249 22.029 235.645 35.848 219.322 52.178L189.645 81.867L194.351 88.882C208.184 109.499 213.843 129.86 212.7 154.903C209.863 217.104 153.27 263.793 91.5 254.891M127.5 232.057C157.419 224.244 179.409 202.754 188.651 172.297C190.974 164.642 191.329 161.683 191.39 149.5C191.448 137.821 191.085 134.198 189.205 127.648C173.993 74.668 116.51 48.983 68 73.49C20.139 97.67 6.677 160.049 40.137 202.6C52.221 217.967 71.818 229.724 91.565 233.454C101.839 235.395 116.973 234.806 127.5 232.057" />
    <glyph glyph-name="badge"
      unicode="&#xEA09;"
      horiz-adv-x="256" d="M0 128L0 21L128 21L256 21L256 128L256 235L224 235L192 235L191.996 228.25C191.992 219.912 189.807 215.752 184.519 214.006C181.705 213.078 180.233 213.075 178.013 213.994C172.858 216.13 171.543 218.54 171 226.851L170.5 234.5L128 234.5L85.5 234.5L85 226.851C84.457 218.54 83.142 216.13 77.987 213.994C75.767 213.075 74.295 213.078 71.481 214.006C66.193 215.752 64.008 219.912 64.004 228.25L64 235L32 235L0 235L0 128M46.533 208.926C49.034 203.38 56.9 196.559 63.798 193.955C71.448 191.067 81.338 191.587 88.54 195.254C93.898 197.983 100.78 204.74 103.441 209.886L105.051 213L128.005 213L150.959 213L152.897 209.25C155.433 204.342 162.359 197.783 168 194.946C182.059 187.878 201.567 194.282 209.072 208.43L211.497 213L223.248 213L235 213L235 128L235 43L128 43L21 43L21 128L21 213L32.848 213L44.696 213L46.533 208.926M77.684 158.611C73.021 156.875 70.528 154.718 67.154 149.5C65.055 146.253 64.562 144.263 64.534 138.926C64.489 130.207 68.184 123.811 75.415 120.089C95.162 109.927 115.063 132.748 102.435 151.074C97.517 158.211 86.016 161.713 77.684 158.611M149 138.5L149 128L181 128L213 128L213 138.5L213 149L181 149L149 149L149 138.5M66.186 105.438C59.8 103.72 53.36 99.472 49.532 94.453C46.141 90.007 43 82.09 43 77.989L43 75L85.628 75L128.256 75L127.581 79.25C125.454 92.649 115.451 103.152 102.201 105.901C94.681 107.461 72.649 107.178 66.186 105.438M149 96L149 85L181 85L213 85L213 96L213 107L181 107L149 107L149 96" />
    <glyph glyph-name="single"
      unicode="&#xEA0A;"
      horiz-adv-x="256" d="M114.5 254.501C105.195 252.422 100.365 250.396 92.932 245.455C79.162 236.3 68.744 220.999 65.389 205C63.143 194.285 63.931 171.013 66.845 162C73.068 142.755 89.142 126.646 108.422 120.333C115.258 118.095 118.268 117.688 128 117.688C137.732 117.688 140.742 118.095 147.578 120.333C166.858 126.646 182.932 142.755 189.155 162C190.755 166.949 191.367 171.961 191.72 183C192.287 200.75 190.816 208.893 184.863 220.966C172.331 246.383 142.277 260.706 114.5 254.501M134.855 233.954C150.375 231.435 163.995 219.579 168.691 204.501C170.656 198.19 171.306 185.227 170.096 176.5C167.99 161.325 159.246 149.281 145.759 142.978C134.821 137.867 119.842 137.973 109.192 143.237C102.041 146.772 93.464 155.312 90.005 162.341C83.708 175.14 83.551 198.436 89.68 210.638C95.419 222.062 108.361 231.911 120.233 233.889C127.555 235.108 127.734 235.109 134.855 233.954M107 94.91C83.424 92.888 50.03 85.566 38.996 80C31.011 75.972 21.686 66.71 17.334 58.484C11.944 48.295 11 42.575 11 20.106L11 0L128 0L245 0L245 20.106C245 42.536 244.049 48.327 238.718 58.36C234.326 66.625 224.893 76.028 217.004 80.004C205.485 85.809 173.014 92.796 147.5 94.961C133.897 96.115 120.859 96.099 107 94.91M154 72.915C173.874 70.778 200.695 64.484 208.44 60.141C214.464 56.762 220.156 49.671 222.385 42.77C223.346 39.796 224 34.372 224 29.385L224 21L128 21L32 21L32 29.385C32 39.549 33.934 46.07 38.865 52.536C43.823 59.037 50.386 62.426 65.039 66.05C84.76 70.927 94.845 72.517 118 74.397C124.201 74.9 142.563 74.144 154 72.915" />
    <glyph glyph-name="image"
      unicode="&#xEA0B;"
      horiz-adv-x="256" d="M0 128L0 11L128 11L256 11L256 128L256 245L128 245L0 245L0 128M235 171.441C235 140.969 234.626 119.113 234.11 119.432C233.62 119.735 221.357 129.879 206.86 141.975C192.362 154.071 180.275 163.949 180 163.927C179.725 163.905 165.325 147.259 148 126.936C130.263 106.13 115.965 90.189 115.276 90.451C114.603 90.708 102.789 99.946 89.023 110.982L63.994 131.046L43.747 114.866C32.611 105.968 22.938 98.252 22.25 97.721C21.253 96.951 21 109.631 21 160.378L21 224L128 224L235 224L235 171.441M101.479 201.947C91.063 200.551 80.717 192.188 76.929 182.102C74.091 174.547 74.493 163.469 77.84 157C83.525 146.01 93.057 139.758 105 139.185C114.672 138.721 121.822 141.256 128.273 147.437C144.688 163.165 140.847 189.279 120.708 198.874C113.793 202.168 108.93 202.945 101.479 201.947M114.077 178.077C118.399 173.755 118.212 168.012 113.6 163.4C111.02 160.82 109.35 160 106.677 160C98.966 160 93.787 168.735 97.458 175.551C100.795 181.748 109.138 183.016 114.077 178.077M209.119 112.324L235 90.648L235 61.324L235 32L127.978 32L20.956 32L21.228 50.75L21.5 69.5L42.349 86.25C53.815 95.463 63.56 103 64.002 103C64.648 103 111.086 66.576 117.098 61.354C118.516 60.121 122.255 64.119 150.418 96.983C167.865 117.342 182.387 134 182.689 134C182.991 134 194.884 124.246 209.119 112.324" />
    <glyph glyph-name="face"
      unicode="&#xEA0D;"
      horiz-adv-x="256" d="M127.8933333333333 234.6666666666667C69.0133333333333 234.6666666666667 21.3333333333333 186.88 21.3333333333333 128S69.0133333333333 21.3333333333333 127.8933333333333 21.3333333333333C186.88 21.3333333333333 234.6666666666667 69.12 234.6666666666667 128S186.88 234.6666666666667 127.8933333333333 234.6666666666667zM128 42.6666666666667C80.8533333333333 42.6666666666667 42.6666666666667 80.8533333333334 42.6666666666667 128S80.8533333333333 213.3333333333334 128 213.3333333333334S213.3333333333333 175.1466666666667 213.3333333333333 128S175.1466666666667 42.6666666666667 128 42.6666666666667zM165.3333333333333 138.6666666666667C174.1866666666667 138.6666666666667 181.3333333333333 145.8133333333333 181.3333333333333 154.6666666666667S174.1866666666667 170.6666666666667 165.3333333333333 170.6666666666667S149.3333333333333 163.52 149.3333333333333 154.6666666666667S156.48 138.6666666666667 165.3333333333333 138.6666666666667zM90.6666666666667 138.6666666666667C99.52 138.6666666666667 106.6666666666667 145.8133333333333 106.6666666666667 154.6666666666667S99.52 170.6666666666667 90.6666666666667 170.6666666666667S74.6666666666667 163.52 74.6666666666667 154.6666666666667S81.8133333333333 138.6666666666667 90.6666666666667 138.6666666666667zM128 69.3333333333334C152.8533333333333 69.3333333333334 173.9733333333333 84.9066666666667 182.5066666666667 106.6666666666667H73.4933333333333C82.0266666666667 84.9066666666667 103.1466666666667 69.3333333333334 128 69.3333333333334z" />
    <glyph glyph-name="home"
      unicode="&#xEA0F;"
      horiz-adv-x="256" d="M107 229.983C95.725 219.597 86.162 211.077 85.75 211.05C85.338 211.022 85 216.4 85 223L85 235L64 235L43 235L43 203.58L43 172.16L37.75 167.231C34.862 164.519 26.875 157.224 20 151.018C13.125 144.813 6.645 138.928 5.6 137.94C3.474 135.931 3.409 136.039 13.57 124.719L17.861 119.938L24.308 125.969C27.854 129.286 31.035 132 31.377 132C31.72 132 32 104.775 32 71.5L32 11L74.5 11L117 11L117 37.5L117 64L128 64L139 64L139 37.5L139 11L181.5 11L224 11L224 71.5C224 104.775 224.28 132 224.623 132C224.965 132 228.13 129.301 231.657 126.002L238.068 120.004L245.035 127.75C248.867 132.01 251.889 135.818 251.751 136.212C251.485 136.972 128.204 249.047 127.76 248.933C127.617 248.896 118.275 240.369 107 229.983M165.902 185.73L203 151.96L203 91.98L203 32L181.5 32L160 32L160 58.5L160 85L128 85L96 85L96 58.5L96 32L74.5 32L53 32L53 91.975L53 151.951L90.25 185.929C110.738 204.618 127.793 219.816 128.152 219.704C128.51 219.592 145.498 204.304 165.902 185.73M96 139L96 107L128 107L160 107L160 139L160 171L128 171L96 171L96 139M139 138.5L139 128L128 128L117 128L117 138.5L117 149L128 149L139 149L139 138.5" />
    <glyph glyph-name="bell"
      unicode="&#xEA10;"
      horiz-adv-x="256" d="M113.803 254.991C82.241 249.972 55.089 225.923 45.88 194.829C43.867 188.033 43.656 184.446 42.973 145.5C42.172 99.891 41.713 95.504 35.817 77.09C31.559 63.795 27.347 55.113 19.156 42.75L12.034 32L49.517 32C80.183 32 87 31.756 87 30.66C87 27.546 93.367 16.95 97.931 12.469C104.399 6.118 111.594 2.419 120.368 0.934C134.434 -1.446 148.653 2.936 158.278 12.618C162.743 17.11 169 27.638 169 30.66C169 31.756 175.823 32 206.522 32L244.045 32L236.876 42.686C226.159 58.659 220.085 73.266 215.908 93.113C213.948 102.426 213.647 107.844 213.006 145.5C212.342 184.484 212.135 188.026 210.12 194.829C201.753 223.079 179.432 244.949 150.695 253.052C142.404 255.39 122.794 256.421 113.803 254.991M140.499 233.505C159.093 230.193 176.419 217.095 184.862 199.966C191.425 186.654 191.96 182.424 192.002 143.5C192.053 96.182 193.946 83.756 205.516 54.75C206.177 53.092 202.089 53 128 53C53.911 53 49.823 53.092 50.484 54.75C62.054 83.756 63.947 96.182 63.998 143.5C64.04 182.424 64.575 186.654 71.138 199.966C79.463 216.855 96.945 230.196 115.042 233.47C124.792 235.234 130.748 235.242 140.499 233.505M146 31.187C146 29.861 140.766 25.363 137 23.453C129.73 19.764 119.351 21.625 112.75 27.801C111.237 29.216 110 30.74 110 31.187C110 31.634 118.1 32 128 32C137.9 32 146 31.634 146 31.187" />
    <glyph glyph-name="filterlist"
      unicode="&#xEA11;"
      horiz-adv-x="256" d="M106.6666666666667 64H149.3333333333333V85.3333333333333H106.6666666666667V64zM32 192V170.6666666666667H224V192H32zM64 117.3333333333334H192V138.6666666666667H64V117.3333333333334z" />
    <glyph glyph-name="share"
      unicode="&#xEA12;"
      horiz-adv-x="256" d="M192 84.48C183.8933333333334 84.48 176.64 81.28 171.0933333333333 76.2666666666667L95.04 120.5333333333334C95.5733333333333 122.9866666666667 96 125.44 96 128S95.5733333333333 133.0133333333334 95.04 135.4666666666667L170.24 179.3066666666667C176 173.9733333333334 183.5733333333333 170.6666666666667 192 170.6666666666667C209.7066666666667 170.6666666666667 224 184.96 224 202.6666666666667S209.7066666666667 234.6666666666667 192 234.6666666666667S160 220.3733333333334 160 202.6666666666667C160 200.1066666666667 160.4266666666667 197.6533333333334 160.96 195.2000000000001L85.76 151.36C80 156.6933333333333 72.4266666666667 160 64 160C46.2933333333333 160 32 145.7066666666667 32 128S46.2933333333333 96 64 96C72.4266666666667 96 80 99.3066666666667 85.76 104.64L161.7066666666667 60.2666666666667C161.1733333333333 58.0266666666666 160.8533333333333 55.68 160.8533333333333 53.3333333333333C160.8533333333333 36.16 174.8266666666667 22.1866666666666 192 22.1866666666666C209.1733333333334 22.1866666666666 223.1466666666667 36.16 223.1466666666667 53.3333333333333S209.1733333333334 84.48 192 84.48z" />
    <glyph glyph-name="chat"
      unicode="&#xEA13;"
      horiz-adv-x="256" d="M0 176L0 96L21.486 96L42.972 96L43.236 64.573L43.5 33.145L87.499 64.573L131.498 96L172.249 96L213 96L213 176L213 256L106.5 256L0 256L0 176M192 176L192 117L158.143 117L124.287 117L94.143 95.553L64 74.105L64 95.553L64 117L42.5 117L21 117L21 176L21 235L106.5 235L192 235L192 176M235 144L235 75L213.5 75L192 75L192 58.5C192 49.425 191.774 42 191.497 42C191.22 42 179.831 49.44 166.188 58.533L141.383 75.067L129.441 74.783L117.5 74.5L117.5 64L117.5 53.5L126.813 53.212L136.127 52.923L174.313 27.46L212.5 1.996L212.767 27.498L213.034 53L234.517 53L256 53L256 133L256 213L245.5 213L235 213L235 144" />
    <glyph glyph-name="heart"
      unicode="&#xEA14;"
      horiz-adv-x="256" d="M56 242.955C35.649 237.704 16.818 222.392 7.619 203.614C2.104 192.358 0.607 185.333 0.561 170.5C0.516 155.71 2.353 147.909 8.772 135.643C13.759 126.112 21.807 117.486 78.404 61.004L128 11.508L178.598 62.004C237.35 120.637 242.569 126.302 248.058 137.4C253.254 147.909 254.911 154.253 255.662 166.518C257.045 189.123 248.712 209.917 232.204 225.054C223.857 232.708 214.866 238.08 204.5 241.606C194.132 245.132 176.482 246.022 165.019 243.595C155.273 241.532 140.907 234.344 133.711 227.93L128 222.84L122.289 227.93C115.231 234.221 100.786 241.516 91.487 243.485C81.568 245.586 65.254 245.342 56 242.955M86.76 222.494C101.004 219.136 112.554 210.345 122 195.673C125.025 190.974 127.725 187.13 128 187.13C128.275 187.13 130.975 190.974 134 195.673C143.446 210.345 154.996 219.136 169.24 222.494C181.188 225.311 193.099 223.959 204.5 218.492C231.477 205.554 242.155 174.209 228.853 147C224.761 138.63 223.961 137.761 176.349 90L128 41.5L79.651 90C32.039 137.761 31.239 138.63 27.147 147C13.869 174.161 24.548 205.517 51.5 218.509C62.736 223.925 74.874 225.297 86.76 222.494" />
    <glyph glyph-name="upload"
      unicode="&#xEA15;"
      horiz-adv-x="256" d="M88.235 209.735L48.98 170.47L56.499 163.001L64.018 155.532L90.509 182.009L117 208.486L117 141.743L117 75L128 75L139 75L139 141.743L139 208.486L165.491 182.009L191.982 155.532L199.501 163.001L207.02 170.47L167.765 209.735C146.174 231.331 128.28 249 128 249C127.72 249 109.826 231.331 88.235 209.735M11 53.5L11 11L128 11L245 11L245 53.5L245 96L234.5 96L224 96L224 64L224 32L128 32L32 32L32 64L32 96L21.5 96L11 96L11 53.5" />
    <glyph glyph-name="gif"
      unicode="&#xEA16;"
      horiz-adv-x="256" d="M213.3333333333333 192H190.08C191.2533333333333 195.3066666666667 192 198.9333333333333 192 202.6666666666667C192 220.3733333333333 177.7066666666667 234.6666666666667 160 234.6666666666667C148.8 234.6666666666667 139.0933333333333 228.9066666666667 133.3333333333333 220.2666666666667L128 213.12L122.6666666666667 220.3733333333333C116.9066666666667 228.9066666666667 107.2 234.6666666666667 96 234.6666666666667C78.2933333333333 234.6666666666667 64 220.3733333333333 64 202.6666666666667C64 198.9333333333333 64.7466666666667 195.3066666666667 65.92 192H42.6666666666667C30.8266666666667 192 21.44 182.5066666666667 21.44 170.6666666666667L21.3333333333333 53.3333333333333C21.3333333333333 41.4933333333333 30.8266666666667 32 42.6666666666667 32H213.3333333333333C225.1733333333333 32 234.6666666666667 41.4933333333333 234.6666666666667 53.3333333333333V170.6666666666667C234.6666666666667 182.5066666666667 225.1733333333333 192 213.3333333333333 192zM160 213.3333333333333C165.8666666666667 213.3333333333333 170.6666666666667 208.5333333333333 170.6666666666667 202.6666666666667S165.8666666666667 192 160 192S149.3333333333334 196.8 149.3333333333334 202.6666666666667S154.1333333333334 213.3333333333333 160 213.3333333333333zM96 213.3333333333334C101.8666666666667 213.3333333333334 106.6666666666667 208.5333333333333 106.6666666666667 202.6666666666667S101.8666666666667 192 96 192S85.3333333333333 196.8 85.3333333333333 202.6666666666667S90.1333333333333 213.3333333333334 96 213.3333333333334zM213.3333333333333 53.3333333333333H42.6666666666667V74.6666666666667H213.3333333333333V53.3333333333333zM213.3333333333333 106.6666666666667H42.6666666666667V170.6666666666667H96.8533333333333L74.6666666666667 140.48L91.9466666666667 128L117.3333333333333 162.56L128 177.0666666666667L138.6666666666667 162.56L164.0533333333334 128L181.3333333333333 140.48L159.1466666666667 170.6666666666667H213.3333333333333V106.6666666666667z" />
    <glyph glyph-name="mountains"
      unicode="&#xEA17;"
      horiz-adv-x="256" d="M149.3333333333333 192L109.3333333333333 138.6666666666667L139.7333333333333 98.1333333333333L122.6666666666667 85.3333333333333C104.64 109.3333333333333 74.6666666666667 149.3333333333334 74.6666666666667 149.3333333333334L10.6666666666667 64H245.3333333333333L149.3333333333333 192z" />
    <glyph glyph-name="close"
      unicode="&#xEA18;"
      horiz-adv-x="256" d="M206.6488888888889 191.5733333333333L191.5733333333333 206.6488888888889L128 143.0755555555556L64.4266666666667 206.6488888888889L49.3511111111111 191.5733333333333L112.9244444444445 128L49.3511111111111 64.4266666666667L64.4266666666667 49.3511111111111L128 112.9244444444445L191.5733333333333 49.3511111111111L206.6488888888889 64.4266666666667L143.0755555555556 128z" />
    <glyph glyph-name="menu"
      unicode="&#xEA19;"
      horiz-adv-x="256" d="M32 64H224V85.3333333333333H32V64zM32 117.3333333333333H224V138.6666666666666H32V117.3333333333333zM32 192V170.6666666666666H224V192H32z" />
  </font>
</defs>
</svg>
